<mxfile host="app.diagrams.net" modified="2021-04-28T10:47:17.030Z" agent="5.0 (Macintosh; Intel Mac OS X 10_15_6) AppleWebKit/605.1.15 (KHTML, like Gecko) Version/14.0.3 Safari/605.1.15" etag="5kFqWNVfOR5FmdUuSunx" version="14.6.6" type="github">
  <diagram id="IK10fmHb0kTFpO02b5Ae" name="Page-1">
    <mxGraphModel dx="1188" dy="667" grid="1" gridSize="10" guides="1" tooltips="1" connect="1" arrows="1" fold="1" page="1" pageScale="1" pageWidth="850" pageHeight="1100" math="0" shadow="0">
      <root>
        <mxCell id="0" />
        <mxCell id="1" parent="0" />
        <mxCell id="zM1oXPr_m4W77ZaWQcFH-5" style="edgeStyle=orthogonalEdgeStyle;rounded=0;orthogonalLoop=1;jettySize=auto;html=1;" edge="1" parent="1" source="zM1oXPr_m4W77ZaWQcFH-1" target="zM1oXPr_m4W77ZaWQcFH-3">
          <mxGeometry relative="1" as="geometry" />
        </mxCell>
        <mxCell id="zM1oXPr_m4W77ZaWQcFH-6" style="edgeStyle=orthogonalEdgeStyle;rounded=0;orthogonalLoop=1;jettySize=auto;html=1;" edge="1" parent="1" source="zM1oXPr_m4W77ZaWQcFH-1" target="zM1oXPr_m4W77ZaWQcFH-4">
          <mxGeometry relative="1" as="geometry" />
        </mxCell>
        <mxCell id="zM1oXPr_m4W77ZaWQcFH-9" style="edgeStyle=orthogonalEdgeStyle;rounded=0;orthogonalLoop=1;jettySize=auto;html=1;" edge="1" parent="1" source="zM1oXPr_m4W77ZaWQcFH-1" target="zM1oXPr_m4W77ZaWQcFH-8">
          <mxGeometry relative="1" as="geometry" />
        </mxCell>
        <mxCell id="zM1oXPr_m4W77ZaWQcFH-10" style="edgeStyle=orthogonalEdgeStyle;rounded=0;orthogonalLoop=1;jettySize=auto;html=1;entryX=0.5;entryY=0;entryDx=0;entryDy=0;" edge="1" parent="1" source="zM1oXPr_m4W77ZaWQcFH-1" target="zM1oXPr_m4W77ZaWQcFH-7">
          <mxGeometry relative="1" as="geometry" />
        </mxCell>
        <mxCell id="zM1oXPr_m4W77ZaWQcFH-25" style="edgeStyle=orthogonalEdgeStyle;rounded=0;orthogonalLoop=1;jettySize=auto;html=1;entryX=0.5;entryY=1;entryDx=0;entryDy=0;" edge="1" parent="1" source="zM1oXPr_m4W77ZaWQcFH-1" target="zM1oXPr_m4W77ZaWQcFH-24">
          <mxGeometry relative="1" as="geometry" />
        </mxCell>
        <mxCell id="zM1oXPr_m4W77ZaWQcFH-1" value="자연" style="rounded=0;whiteSpace=wrap;html=1;" vertex="1" parent="1">
          <mxGeometry x="400" y="320" width="120" height="60" as="geometry" />
        </mxCell>
        <mxCell id="zM1oXPr_m4W77ZaWQcFH-12" style="edgeStyle=orthogonalEdgeStyle;rounded=0;orthogonalLoop=1;jettySize=auto;html=1;entryX=0.5;entryY=1;entryDx=0;entryDy=0;" edge="1" parent="1" source="zM1oXPr_m4W77ZaWQcFH-3" target="zM1oXPr_m4W77ZaWQcFH-11">
          <mxGeometry relative="1" as="geometry" />
        </mxCell>
        <mxCell id="zM1oXPr_m4W77ZaWQcFH-3" value="동물&lt;br&gt;" style="ellipse;whiteSpace=wrap;html=1;" vertex="1" parent="1">
          <mxGeometry x="560" y="310" width="120" height="80" as="geometry" />
        </mxCell>
        <mxCell id="zM1oXPr_m4W77ZaWQcFH-31" style="edgeStyle=orthogonalEdgeStyle;rounded=0;orthogonalLoop=1;jettySize=auto;html=1;" edge="1" parent="1" source="zM1oXPr_m4W77ZaWQcFH-4" target="zM1oXPr_m4W77ZaWQcFH-30">
          <mxGeometry relative="1" as="geometry" />
        </mxCell>
        <mxCell id="zM1oXPr_m4W77ZaWQcFH-4" value="식물" style="ellipse;whiteSpace=wrap;html=1;" vertex="1" parent="1">
          <mxGeometry x="240" y="310" width="120" height="80" as="geometry" />
        </mxCell>
        <mxCell id="zM1oXPr_m4W77ZaWQcFH-7" value="공기" style="ellipse;whiteSpace=wrap;html=1;" vertex="1" parent="1">
          <mxGeometry x="520" y="440" width="120" height="80" as="geometry" />
        </mxCell>
        <mxCell id="zM1oXPr_m4W77ZaWQcFH-16" style="edgeStyle=orthogonalEdgeStyle;rounded=0;orthogonalLoop=1;jettySize=auto;html=1;" edge="1" parent="1" source="zM1oXPr_m4W77ZaWQcFH-8" target="zM1oXPr_m4W77ZaWQcFH-15">
          <mxGeometry relative="1" as="geometry" />
        </mxCell>
        <mxCell id="zM1oXPr_m4W77ZaWQcFH-19" style="edgeStyle=orthogonalEdgeStyle;rounded=0;orthogonalLoop=1;jettySize=auto;html=1;entryX=1.038;entryY=0.423;entryDx=0;entryDy=0;entryPerimeter=0;" edge="1" parent="1" source="zM1oXPr_m4W77ZaWQcFH-8" target="zM1oXPr_m4W77ZaWQcFH-17">
          <mxGeometry relative="1" as="geometry" />
        </mxCell>
        <mxCell id="zM1oXPr_m4W77ZaWQcFH-20" style="edgeStyle=orthogonalEdgeStyle;rounded=0;orthogonalLoop=1;jettySize=auto;html=1;entryX=1;entryY=0.5;entryDx=0;entryDy=0;" edge="1" parent="1" source="zM1oXPr_m4W77ZaWQcFH-8" target="zM1oXPr_m4W77ZaWQcFH-18">
          <mxGeometry relative="1" as="geometry" />
        </mxCell>
        <mxCell id="zM1oXPr_m4W77ZaWQcFH-22" style="edgeStyle=orthogonalEdgeStyle;rounded=0;orthogonalLoop=1;jettySize=auto;html=1;entryX=0.5;entryY=0;entryDx=0;entryDy=0;" edge="1" parent="1" source="zM1oXPr_m4W77ZaWQcFH-8" target="zM1oXPr_m4W77ZaWQcFH-21">
          <mxGeometry relative="1" as="geometry" />
        </mxCell>
        <mxCell id="zM1oXPr_m4W77ZaWQcFH-8" value="물" style="ellipse;whiteSpace=wrap;html=1;" vertex="1" parent="1">
          <mxGeometry x="280" y="440" width="120" height="80" as="geometry" />
        </mxCell>
        <mxCell id="zM1oXPr_m4W77ZaWQcFH-11" value="사람" style="ellipse;whiteSpace=wrap;html=1;" vertex="1" parent="1">
          <mxGeometry x="700" y="210" width="120" height="80" as="geometry" />
        </mxCell>
        <mxCell id="zM1oXPr_m4W77ZaWQcFH-14" style="edgeStyle=orthogonalEdgeStyle;rounded=0;orthogonalLoop=1;jettySize=auto;html=1;" edge="1" parent="1" source="zM1oXPr_m4W77ZaWQcFH-13" target="zM1oXPr_m4W77ZaWQcFH-1">
          <mxGeometry relative="1" as="geometry" />
        </mxCell>
        <mxCell id="zM1oXPr_m4W77ZaWQcFH-13" value="우주" style="ellipse;whiteSpace=wrap;html=1;" vertex="1" parent="1">
          <mxGeometry x="400" y="20" width="120" height="80" as="geometry" />
        </mxCell>
        <mxCell id="zM1oXPr_m4W77ZaWQcFH-15" value="식용수" style="ellipse;whiteSpace=wrap;html=1;" vertex="1" parent="1">
          <mxGeometry x="280" y="550" width="120" height="80" as="geometry" />
        </mxCell>
        <mxCell id="zM1oXPr_m4W77ZaWQcFH-17" value="바다" style="ellipse;whiteSpace=wrap;html=1;" vertex="1" parent="1">
          <mxGeometry x="120" y="440" width="120" height="80" as="geometry" />
        </mxCell>
        <mxCell id="zM1oXPr_m4W77ZaWQcFH-18" value="강" style="ellipse;whiteSpace=wrap;html=1;" vertex="1" parent="1">
          <mxGeometry x="120" y="550" width="120" height="80" as="geometry" />
        </mxCell>
        <mxCell id="zM1oXPr_m4W77ZaWQcFH-21" value="수질오염" style="ellipse;whiteSpace=wrap;html=1;" vertex="1" parent="1">
          <mxGeometry x="420" y="560" width="120" height="60" as="geometry" />
        </mxCell>
        <mxCell id="zM1oXPr_m4W77ZaWQcFH-23" value="미세플라스틱" style="ellipse;whiteSpace=wrap;html=1;" vertex="1" parent="1">
          <mxGeometry x="425" y="660" width="120" height="80" as="geometry" />
        </mxCell>
        <mxCell id="zM1oXPr_m4W77ZaWQcFH-27" style="edgeStyle=orthogonalEdgeStyle;rounded=0;orthogonalLoop=1;jettySize=auto;html=1;entryX=0;entryY=0.5;entryDx=0;entryDy=0;" edge="1" parent="1" source="zM1oXPr_m4W77ZaWQcFH-24" target="zM1oXPr_m4W77ZaWQcFH-26">
          <mxGeometry relative="1" as="geometry" />
        </mxCell>
        <mxCell id="zM1oXPr_m4W77ZaWQcFH-24" value="경관" style="ellipse;whiteSpace=wrap;html=1;" vertex="1" parent="1">
          <mxGeometry x="520" y="140" width="120" height="80" as="geometry" />
        </mxCell>
        <mxCell id="zM1oXPr_m4W77ZaWQcFH-29" style="edgeStyle=orthogonalEdgeStyle;rounded=0;orthogonalLoop=1;jettySize=auto;html=1;" edge="1" parent="1" source="zM1oXPr_m4W77ZaWQcFH-26" target="zM1oXPr_m4W77ZaWQcFH-28">
          <mxGeometry relative="1" as="geometry" />
        </mxCell>
        <mxCell id="zM1oXPr_m4W77ZaWQcFH-26" value="등산" style="ellipse;whiteSpace=wrap;html=1;" vertex="1" parent="1">
          <mxGeometry x="630" y="50" width="120" height="80" as="geometry" />
        </mxCell>
        <mxCell id="zM1oXPr_m4W77ZaWQcFH-28" value="등산로" style="ellipse;whiteSpace=wrap;html=1;" vertex="1" parent="1">
          <mxGeometry x="800" y="50" width="120" height="80" as="geometry" />
        </mxCell>
        <mxCell id="zM1oXPr_m4W77ZaWQcFH-30" value="공원" style="ellipse;whiteSpace=wrap;html=1;" vertex="1" parent="1">
          <mxGeometry x="100" y="310" width="120" height="80" as="geometry" />
        </mxCell>
      </root>
    </mxGraphModel>
  </diagram>
</mxfile>
